     <svg xmlns="http://www.w3.org/2000/svg" width="253.296" height="267.861" viewBox="0 0 253.296 267.861">  <g id="Groupe_6410" data-name="Groupe 6410" transform="translate(728.296 3858.197)"><path id="Tracé_17031" data-name="Tracé 17031" d="M476.471,597H550.55a17.786,17.786,0,0,1,17.771,17.771v2.56A17.786,17.786,0,0,1,550.55,635.1H476.471A17.786,17.786,0,0,1,458.7,617.331v-2.56A17.724,17.724,0,0,1,476.471,597Z" transform="translate(-1097.235 -4248.116)"></path><g id="Groupe_2" data-name="Groupe 2" transform="translate(-848.19 -3931.622)"><rect id="Rectangle_15" data-name="Rectangle 15" width="13.811" height="9.32" transform="translate(318.613 276.711)" opacity="0.4"></rect><rect id="Rectangle_16" data-name="Rectangle 16" width="13.811" height="9.32" transform="translate(355.894 276.711)" opacity="0.4"></rect><rect id="Rectangle_35" data-name="Rectangle 35" width="69.057" height="8.354" transform="translate(197.45 215.623)" opacity="0.4"></rect><rect id="Rectangle_36" data-name="Rectangle 36" width="69.057" height="8.354" transform="translate(197.45 242.183)" opacity="0.4"></rect><path id="Tracé_17" data-name="Tracé 17" d="M382.324,583.122s-9.658-2.27-14.149-4.3-29.7-6.036-35.2,5.892,7.582,27.767,10.866,29.506,35.2-21.924,35.2-21.924l25.208,10.624,4.829-16.467Z" transform="translate(-171.546 -298.105)"></path><path id="Tracé_20" data-name="Tracé 20" d="M484.232,638.8s-11.01,2.8-19.944,2.7c-8.982-.145-50.947,17.288-50.947,17.288s-6.036,13.763,3.815,12.652,14.681-5.94,21.586-5.94,28.83-2.415,28.83-2.415l21.055-15.55Z" transform="translate(-212.848 -330.313)" fill="#1d1d1d"></path><path id="Tracé_21" data-name="Tracé 21" d="M520.817,316.893l-19.7,3.863-1.3.241s-15.6-4.153-16.129-4.491S469,297.094,469,297.094s7.147.1,12.8-3.139a4.026,4.026,0,0,0,.579-.386,12.618,12.618,0,0,0,5.312-6.519l.29-.869a18.147,18.147,0,0,0-.145-8.5c-1.932-8.065,2.511-10.286,8.4-10.093,8.5.29,20.089,5.6,20.089,5.6a23.406,23.406,0,0,0,1.835,7.871l.29.724a22.548,22.548,0,0,0,10.479,11.01l.628.29c.628.29,1.3.579,1.98.821C546.556,299.653,520.817,316.893,520.817,316.893Z" transform="translate(-242.575 -138.358)" fill="#fbbebe"></path><path id="Tracé_22" data-name="Tracé 22" d="M538.131,281.847a24.907,24.907,0,0,1-30.713,5.312,16.409,16.409,0,0,0,.1-9.369c-4.684-19.7,28.492-4.491,28.492-4.491A25,25,0,0,0,538.131,281.847Z" transform="translate(-262.257 -138.42)" opacity="0.1"></path><path id="Tracé_23" data-name="Tracé 23" d="M531.04,234.118a24.728,24.728,0,0,1-3.767,13.135,25.533,25.533,0,0,1-2.753,3.622,24.7,24.7,0,0,1-16.854,8.016c-.483.048-1.014.048-1.5.048a24.87,24.87,0,1,1,24.87-24.822Z" transform="translate(-248.936 -108.172)" fill="#fbbebe"></path><path id="Tracé_24" data-name="Tracé 24" d="M520.817,343.9l-19.7,3.863-1.3.241s-15.6-4.153-16.129-4.491S469,324.1,469,324.1s7.147.1,12.8-3.139a4.028,4.028,0,0,0,.579-.386,23.092,23.092,0,0,0,16.805,7.34,28.822,28.822,0,0,0,3.525-.241c2.753-.435,5.553-.724,8.354-.966,5.36-.579,13.522-2.173,17.82-6.906l.628.29c.628.29,1.3.579,1.98.821C546.556,326.657,520.817,343.9,520.817,343.9Z" transform="translate(-242.575 -165.362)" opacity="0.1"></path><path id="Tracé_25" data-name="Tracé 25" d="M518.1,394.624c.145,3.815,2.946,46.6,2.946,46.6H434.9l.58-26.946.483-21.538.145-7.1.676-24.532-2.511-2.221L420.7,346.912h0c.1-.338,3.767-11.252,3.284-12.749s6.568-7.775,8.982-8.113c1.352-.338,2.7-.724,4.056-1.207,4.057-1.449,9.513-3.525,10.093-3.187.869.435,9.32-.338,9.658-.386h0a23.083,23.083,0,0,0,17.433,8.016,21.7,21.7,0,0,0,3.525-.29c2.753-.435,5.553-.724,8.354-.966,5.6-.579,14.342-2.366,18.447-7.63a27.066,27.066,0,0,1,5.795,1.256,34.04,34.04,0,0,0,8.451,1.159,44.5,44.5,0,0,1,6.568,2.415,48.843,48.843,0,0,0,6.229,2.415s3.96,1.014,5.022,11.059,2.077,15.695,2.077,15.695l-20.524,17.771C518.1,372.168,517.958,390.809,518.1,394.624Z" transform="translate(-217.6 -165.673)"></path><path id="Tracé_26" data-name="Tracé 26" d="M417.491,520.181l3.042,4.829,11.3,4.008,7.775-14.2-7.147-4.829L420.968,505.5l-6.568,3.815Z" transform="translate(-214.342 -261.385)" fill="#fbbebe"></path><path id="Tracé_27" data-name="Tracé 27" d="M618.945,563.52s16.033-1.207,22.6-8.644,23.132-11.4,23.132-11.4,39.889-4.684,24.146,30.568c0,0-1.014,3.96-3.091,5.167s-7.1,4.3-7.1,4.3l-61.233-5.36Z" transform="translate(-319.311 -280.917)"></path><path id="Tracé_28" data-name="Tracé 28" d="M616.949,621.194a18.88,18.88,0,0,1-3.187,10.528c-10.286.918-33.128,3.042-37.909,4.395-5.892,1.642-17.723-1.207-19.027-1.545l-.145-.048s-2.27-6.954-3.38-11.4c-.483-2.028-.724-3.525-.435-3.622,1.062-.338,10.527-2.946,10.383-1.449S591.741,606.9,591.741,606.9l.869,11.059C595.556,621.387,616.949,616.413,616.949,621.194Z" transform="translate(-285.877 -313.818)" opacity="0.1"></path><path id="Tracé_29" data-name="Tracé 29" d="M647.576,612.591l-1.207,4.491a34.967,34.967,0,0,1-9.658,7.582c-5.7,2.946-15.695,7.775-15.695,7.775s-36.75,3.091-42.979,4.829-19.172-1.545-19.172-1.545-4.829-14.681-3.815-15.019,10.527-2.946,10.383-1.449S593.925,608.1,593.925,608.1Z" transform="translate(-286.998 -314.438)"></path><path id="Tracé_30" data-name="Tracé 30" d="M534.9,679.679s18.061,1.256,22.359,2.9,35.011-.628,35.011-.628,19.848.386,25.5,2.077,3.67-17.385-6.809-19.51-25.256,1.014-25.256,1.014-16.66-2.173-18.689-2.415-15.357.145-15.357.145Z" transform="translate(-276.651 -342.845)" fill="#1d1d1d"></path><path id="Tracé_31" data-name="Tracé 31" d="M387.8,598.9s23.9,2.173,30.472,6.085Z" transform="translate(-200.588 -309.681)" opacity="0.1"></path><path id="Tracé_32" data-name="Tracé 32" d="M668.429,566.5s-18.689,4.539-26.029,11.252Z" transform="translate(-332.238 -292.928)" opacity="0.1"></path><path id="Tracé_33" data-name="Tracé 33" d="M390.7,587.6c.386.145,11.01,1.5,10.721,2.511S390.7,587.6,390.7,587.6Z" transform="translate(-202.087 -303.838)" opacity="0.1"></path><path id="Tracé_34" data-name="Tracé 34" d="M356.1,631.321l1.4,5.167a23.638,23.638,0,0,1,3.815,3.622c.724,1.207,4.636,1.545,4.636,1.545s4.153,1.883,5.167,2.946,12.266,4.3,22.793,5.7,30.037,3.96,34.19,5.36a47.943,47.943,0,0,0,8.982,1.883s7.775,4.153,11.928,3.091,11.2-19.848,11.2-19.848-27.285-6.374-28.154-8.451S404.971,620.6,404.971,620.6l-15.55.386Z" transform="translate(-184.196 -320.902)" opacity="0.1"></path><path id="Tracé_35" data-name="Tracé 35" d="M354,623.01l1.4,5.167a23.64,23.64,0,0,1,3.815,3.622c.724,1.207,4.636,1.545,4.636,1.545s4.153,1.883,5.167,2.946,12.266,4.3,22.793,5.7,30.037,3.96,34.19,5.36a47.933,47.933,0,0,0,8.982,1.883s7.775,4.153,11.928,3.091,11.2-19.848,11.2-19.848-27.285-6.375-28.154-8.451S390.6,606.253,390.6,606.253L378.532,603.5Z" transform="translate(-183.11 -312.06)"></path><path id="Tracé_36" data-name="Tracé 36" d="M409.458,371.8l-3.042,1.738-5.8,39.7s-3.091,2.946-2.125,4.829-.193,5.167-.193,5.167-5.215,2.27-4.056,3.622.628,3.96-.145,5.7-2.076,4.829,0,5.36.338,7.244.338,7.244,7.292-.821,6.761,3.429c-.241,1.738,8.258,7.244,8.258,7.244s-9.61-17.433,11.928-15.019l1.835-9.8s1.835-5.553,0-7.244.435-9.9.435-9.9l.386-35.639Z" transform="translate(-203.267 -192.251)"></path><path id="Tracé_37" data-name="Tracé 37" d="M417.4,478c.386.628,12.025,1.932,12.749,4.008S417.4,478,417.4,478Z" transform="translate(-215.894 -247.166)" opacity="0.1"></path><path id="Tracé_38" data-name="Tracé 38" d="M409.8,493.946s1.594-4.926,5.312-4.056S409.8,493.946,409.8,493.946Z" transform="translate(-211.964 -253.26)" opacity="0.1"></path><path id="Tracé_39" data-name="Tracé 39" d="M405.6,506.758s2.8-6.568,6.568-6.085S405.6,506.758,405.6,506.758Z" transform="translate(-209.792 -258.876)" opacity="0.1"></path><path id="Tracé_40" data-name="Tracé 40" d="M631.459,504.261l-1.207,7.244s-12.411,22.794-14.68,23.131-14.487-15.212-14.487-15.212L597.8,504.213l12.894-2.463,5.747-5.65C616.44,496.148,630.928,497.549,631.459,504.261Z" transform="translate(-309.176 -256.525)" fill="#fbbebe"></path><path id="Tracé_41" data-name="Tracé 41" d="M635.8,380.8l4.684,3.284v17.433s3.622-.338,2.753,1.545-2.608,2.946-1.014,4.684,1.207,5.022-.193,5.36-3.815,1.739-1.545,2.608,3.622,2.415,3.622,3.477.193,2.608-.676,3.815-1.739,3.96-.676,5.022-.869,6.374-.869,6.374,3.284,8.451.193,10.866c0,0-1.4,4.829-1.545,5.167,0,0,2.173-16.805-19.558-9.707,0,0-.386-6.423-.531-8.789s1.883-3.042.773-4.491-3.911-4.684-2.608-5.505.869-2.415.338-3.622-2.318-1.207-.676-2.656,2.656-2.849,1.642-3.525-2.656-2.946-1.3-3.96,1.4-16.033,1.4-16.033S625.469,369.93,635.8,380.8Z" transform="translate(-319.412 -195.355)"></path><path id="Tracé_42" data-name="Tracé 42" d="M650.8,444.65s6.616-1.787,6.857,0S650.8,444.65,650.8,444.65Z" transform="translate(-336.582 -229.51)" opacity="0.1"></path><path id="Tracé_43" data-name="Tracé 43" d="M635.3,454.549s9.079-2.27,10.238-.483S635.3,454.549,635.3,454.549Z" transform="translate(-328.567 -234.435)" opacity="0.1"></path><path id="Tracé_44" data-name="Tracé 44" d="M631.1,465.027s13.666-1.883,14.536.869S631.1,465.027,631.1,465.027Z" transform="translate(-326.395 -240.132)" opacity="0.1"></path><path id="Tracé_45" data-name="Tracé 45" d="M635.3,478c.483.145,13.135,1.014,13.377,3.429S635.3,478,635.3,478Z" transform="translate(-328.567 -247.166)" opacity="0.1"></path><path id="Tracé_46" data-name="Tracé 46" d="M430.171,494.1h98.08a5.07,5.07,0,0,1,5.07,5.071V550.5a5.07,5.07,0,0,1-5.07,5.071h-98.08A5.07,5.07,0,0,1,425.1,550.5V499.171A5.07,5.07,0,0,1,430.171,494.1Z" transform="translate(-219.875 -255.491)" fill="#1e1d26"></path><circle id="Ellipse_14" data-name="Ellipse 14" cx="4.008" cy="4.008" r="4.008" transform="translate(255.351 265.363)" fill="#e7effd"></circle><path id="Tracé_47" data-name="Tracé 47" d="M462.7,416.1s10.383,7.92,18.4,1.883C481.051,417.983,467.529,419.239,462.7,416.1Z" transform="translate(-239.318 -215.158)" opacity="0.1"></path><path id="Tracé_48" data-name="Tracé 48" d="M571.4,420.5s10.383,7.92,18.4,1.883C589.8,422.383,576.229,423.639,571.4,420.5Z" transform="translate(-295.525 -217.433)" opacity="0.1"></path><path id="Tracé_49" data-name="Tracé 49" d="M507.305,234.185a24.728,24.728,0,0,1-3.767,13.135c-.193-6.906-1.835-13.86-5.6-19.606-3.429-5.312-13.908-14.584-21.152-11.976a5.1,5.1,0,0,0-3.139,3.38c-.724,2.7,1.352,3.863,2.7,5.988a18.365,18.365,0,0,1,2.511,12.411,11.226,11.226,0,0,1-.386,1.738c-1.111,4.25-3.718,9.127-1.062,12.6,1.883,2.415,5.892,3.284,6.423,6.278a5.247,5.247,0,0,1,.048.869c-.145,2.028-1.835,3.815-2.608,5.795-.869,2.366-.386,4.684.531,7.051,1.207,3.091,3.091,6.181,3.574,9.465s-.531,6.278-1.69,9.32c-1.111,2.9-2.415,5.795-2.849,8.789-.821,5.747,1.256,12.363-2.318,16.9a2.626,2.626,0,0,1-1.594,1.062c-2.318.241-1.932-3.912-3.767-5.312.193,2.415.386,4.926-.483,7.2s-3.139,4.2-5.553,3.815l-.821-5.409a15.176,15.176,0,0,1-5.747,3.574,42.547,42.547,0,0,1,5.988-16.226c-6.085,2.946-9.61,9.272-12.8,15.212-1.98,3.718-4.008,7.775-3.332,11.928.29,1.69,1.014,3.284,1.159,5.022s-.483,3.718-2.028,4.346a3.645,3.645,0,0,1-4.008-1.256l-.193-.193c-.1-.145-.193-.241-.29-.386a4.582,4.582,0,0,1-.483-.821,14.32,14.32,0,0,1-.966-3.187l-.1-.483c-1.594-7.051-3.042-14.342-1.883-21.49.435-2.608,1.207-5.215,1.111-7.92a15.173,15.173,0,0,0-.918-4.395c-1.4-3.96-4.1-7.582-5.65-11.542,0-.048-.048-.048-.048-.1-.821-2.125-1.207-4.733.29-6.423a13.182,13.182,0,0,1,2.9-1.932c2.994-1.932,4.346-5.65,4.877-9.224a32.545,32.545,0,0,0,.386-4.829c4.056-1.449,9.513-3.525,10.093-3.187.869.435,9.32-.338,9.658-.386a12.865,12.865,0,0,0,5.94-6.857l.29-.869a24.848,24.848,0,1,1,36.75-21.876Z" transform="translate(-225.201 -108.239)" opacity="0.1"></path><path id="Tracé_50" data-name="Tracé 50" d="M478.679,208.57c-1.159,4.25-3.719,9.127-1.062,12.6,1.883,2.415,5.892,3.284,6.423,6.278.435,2.415-1.69,4.395-2.559,6.664-2.028,5.409,3.284,10.769,4.1,16.516.869,6.23-3.67,11.88-4.539,18.109-.821,5.747,1.256,12.363-2.318,16.9a2.626,2.626,0,0,1-1.594,1.062c-2.318.241-1.932-3.912-3.767-5.312.193,2.415.386,4.926-.483,7.2s-3.139,4.153-5.553,3.815L466.509,287a15.913,15.913,0,0,1-5.747,3.622,42.548,42.548,0,0,1,5.988-16.226c-6.085,2.946-9.61,9.272-12.8,15.212-1.98,3.718-4.008,7.775-3.332,11.976.29,1.69,1.014,3.284,1.159,5.022s-.483,3.718-2.028,4.346A3.69,3.69,0,0,1,445.6,309.5a10.84,10.84,0,0,1-1.69-4.395c-1.642-7.2-3.187-14.632-1.98-21.924.435-2.656,1.207-5.264,1.111-7.92-.193-5.843-4.491-10.624-6.616-16.033-.821-2.125-1.207-4.733.29-6.423a13.179,13.179,0,0,1,2.9-1.932c2.994-1.98,4.346-5.65,4.877-9.224a32.009,32.009,0,0,0-.338-11.542c-1.207-5.7-4.008-11.2-3.284-17,.676-5.65,4.539-10.334,7.2-15.4a36.561,36.561,0,0,0,3.718-21.3c-.435-3.38-1.256-7.34,1.062-9.9,2.753-3.042,8.113-1.883,11.3-4.539,1.545-1.3,2.318-3.284,3.429-4.926a12.054,12.054,0,0,1,12.894-4.588c2.173.628,4.1,1.883,6.278,2.559,3.042.966,6.278.869,9.465,1.256s6.519,1.449,8.354,4.056c.966,1.4,1.4,3.091,2.318,4.539,1.932,3.091,5.554,4.588,8.306,6.954a16.089,16.089,0,0,1,4.539,17.192c-1.642,4.588-5.457,8.644-5.119,13.473.145,1.98.966,3.96.724,5.94-.773,5.505-8.741,6.616-11.493,11.4.241-7.92-1.3-16.033-5.6-22.649-3.429-5.312-13.908-14.584-21.152-12.025a5.1,5.1,0,0,0-3.139,3.38c-.724,2.7,1.352,3.863,2.7,5.988A18.531,18.531,0,0,1,478.679,208.57Z" transform="translate(-225.356 -78.616)"></path><g id="Groupe_1" data-name="Groupe 1" transform="translate(210.32 92.094)" opacity="0.2"><path id="Tracé_51" data-name="Tracé 51" d="M450.232,302.479a34.5,34.5,0,0,0-.676-7.389c-1.014-4.829-3.187-9.562-3.38-14.391-.29,5.409,2.221,10.624,3.38,15.936A33.852,33.852,0,0,1,450.232,302.479Z" transform="translate(-441.081 -237.238)"></path><path id="Tracé_52" data-name="Tracé 52" d="M481.19,404.47c.435-.773.869-1.545,1.3-2.27-6.085,2.946-9.61,9.272-12.8,15.212-1.835,3.429-3.718,7.2-3.429,11.01.241-3.284,1.835-6.519,3.429-9.465C472.643,413.5,475.927,407.657,481.19,404.47Z" transform="translate(-451.467 -300.064)"></path><path id="Tracé_53" data-name="Tracé 53" d="M457.88,451.8a3.672,3.672,0,0,1-2.028,3.042,3.762,3.762,0,0,1-4.153-1.449,10.84,10.84,0,0,1-1.69-4.394c-1.159-5.167-2.318-10.431-2.415-15.695-.1,5.747,1.111,11.59,2.415,17.24a10.841,10.841,0,0,0,1.69,4.395,3.762,3.762,0,0,0,4.153,1.449c1.594-.628,2.221-2.656,2.077-4.346A.435.435,0,0,1,457.88,451.8Z" transform="translate(-441.824 -316.145)"></path><path id="Tracé_54" data-name="Tracé 54" d="M522.916,258.4a15.732,15.732,0,0,1-.58,3.67c-.821,3.139-2.463,6.664-2.173,9.658.242-2.608,1.5-5.505,2.173-8.113A19.221,19.221,0,0,0,522.916,258.4Z" transform="translate(-479.334 -225.707)"></path><path id="Tracé_55" data-name="Tracé 55" d="M468.555,200.358a35.052,35.052,0,0,0-.29-5.505c-.193-1.352-.386-2.753-.483-4.153a32.978,32.978,0,0,0,.483,5.747A25.688,25.688,0,0,1,468.555,200.358Z" transform="translate(-452.257 -190.7)"></path><path id="Tracé_56" data-name="Tracé 56" d="M532.563,308.245a.177.177,0,0,0-.048-.145c-.386,1.787-1.835,3.429-2.511,5.264a7.971,7.971,0,0,0-.435,3.38,5.987,5.987,0,0,1,.435-1.835C530.873,312.639,533,310.611,532.563,308.245Z" transform="translate(-484.2 -251.406)"></path><path id="Tracé_57" data-name="Tracé 57" d="M442.967,383.989c-.193-5.843-4.491-10.624-6.616-16.033a10.224,10.224,0,0,1-.676-2.656,8.87,8.87,0,0,0,.676,4.2c2.076,5.36,6.23,10.045,6.568,15.743A10.493,10.493,0,0,0,442.967,383.989Z" transform="translate(-435.651 -280.983)"></path><path id="Tracé_58" data-name="Tracé 58" d="M538.728,228.856c-3.477-5.312-13.908-14.584-21.152-12.024a5.1,5.1,0,0,0-3.139,3.38,3.375,3.375,0,0,0-.048,1.835,2.091,2.091,0,0,1,.048-.241,5.21,5.21,0,0,1,3.139-3.38c7.2-2.608,17.675,6.712,21.152,12.025,3.912,5.988,5.505,13.232,5.6,20.427C544.475,243.1,542.93,235.279,538.728,228.856Z" transform="translate(-476.312 -203.986)"></path><path id="Tracé_59" data-name="Tracé 59" d="M587.993,265.348c-.773,5.505-8.692,6.568-11.493,11.4v1.594c2.753-4.829,10.721-5.94,11.493-11.4a9.324,9.324,0,0,0,0-1.642C588.042,265.3,588.042,265.348,587.993,265.348Z" transform="translate(-508.482 -229.275)"></path><path id="Tracé_60" data-name="Tracé 60" d="M604,220.646c-1.642,4.588-5.457,8.644-5.119,13.473v.193c.338-4.3,3.622-7.968,5.071-12.121a15.336,15.336,0,0,0,.869-5.892A15.345,15.345,0,0,1,604,220.646Z" transform="translate(-520.042 -203.937)"></path><path id="Tracé_61" data-name="Tracé 61" d="M518.96,417.427a2.627,2.627,0,0,1-1.594,1.062c-2.318.241-1.932-3.912-3.767-5.312.048.531.1,1.111.145,1.642,1.739,1.5,1.4,5.457,3.67,5.216a2.771,2.771,0,0,0,1.594-1.062c2.077-2.608,2.27-5.843,2.221-9.272C521.134,412.549,520.7,415.253,518.96,417.427Z" transform="translate(-475.957 -303.942)"></path><path id="Tracé_62" data-name="Tracé 62" d="M499.621,428.129c-.869,2.27-3.139,4.2-5.553,3.815-.29-1.787-.531-3.622-.821-5.409a15.489,15.489,0,0,1-5.457,3.477c-.1.531-.193,1.111-.29,1.642a15.291,15.291,0,0,0,5.747-3.622c.29,1.835.531,3.622.821,5.409,2.415.386,4.684-1.545,5.553-3.815a12.164,12.164,0,0,0,.628-4.926A10.044,10.044,0,0,1,499.621,428.129Z" transform="translate(-462.461 -311.698)"></path><path id="Tracé_63" data-name="Tracé 63" d="M529.375,373.895a26.783,26.783,0,0,0-.193,4.395,28.219,28.219,0,0,1,.193-2.849c.869-5.94,5.022-11.348,4.636-17.24C533.672,363.512,530.147,368.486,529.375,373.895Z" transform="translate(-484.005 -277.312)"></path></g><circle id="Ellipse_28" data-name="Ellipse 28" cx="0.724" cy="0.724" r="0.724" transform="translate(119.894 277.387)" opacity="0.1"></circle></g></g></svg>